Jellystone Park is celebrating its 100 anniversary, however it may be for the last time, because attendance is down and Mayor Brown wants to close the park and sell the land. If the park is closed, Yogi Bear and Boo Boo will lose their home. They join forces with Ranger Smith to save Jellystone from closing forever. Yogi must really prove in this endeavor that he is "smarter than the average bear".


Dan Aykroyd	 ...	
Yogi Bear (voice)
Justin Timberlake	 ...	
Boo Boo (voice)
Anna Faris	 ...	
Rachel
Tom Cavanagh	 ...	
Ranger Smith
T.J. Miller	 ...	
Ranger Jones
Nathan Corddry	 ...	
Chief of Staff
Andrew Daly	 ...	
Mayor Brown
Josh Robert Thompson	 ...	
Narrator (voice)
David Stott	 ...	
Mayor's Tailor


Format                           : AVI
Format/Info                      : Audio Video Interleave
File size                        : 900 MiB
Duration                         : 1h 12mn
Overall bit rate                 : 1 728 Kbps
Writing application              : VirtualDubMod 1.5.4.1 (build 2178/release)
Writing library                  : VirtualDubMod build 2178/release

Video
ID                               : 0
Format                           : MPEG-4 Visual
Format profile                   : Advanced Simple@L5
Format settings, BVOP            : 1
Format settings, QPel            : No
Format settings, GMC             : No warppoints
Format settings, Matrix          : Custom
Codec ID                         : XVID
Codec ID/Hint                    : XviD
Duration                         : 1h 12mn
Bit rate                         : 1 497 Kbps
Width                            : 640 pixels
Height                           : 368 pixels
Display aspect ratio             : 16:9
Frame rate                       : 25.000 fps
Color space                      : YUV
Chroma subsampling               : 4:2:0
Bit depth                        : 8 bits
Scan type                        : Progressive
Compression mode                 : Lossy
Bits/(Pixel*Frame)               : 0.254
Stream size                      : 780 MiB (87%)
Writing library                  : XviD 1.2.1 (UTC 2008-12-04)

Audio
ID                               : 1
Format                           : AC-3
Format/Info                      : Audio Coding 3
Mode extension                   : CM (complete main)
Codec ID                         : 2000
Duration                         : 1h 12mn
Bit rate mode                    : Constant
Bit rate                         : 224 Kbps
Channel(s)                       : 2 channels
Channel positions                : Front: L R
Sampling rate                    : 48.0 KHz
Bit depth                        : 16 bits
Compression mode                 : Lossy
Stream size                      : 117 MiB (13%)
Alignment                        : Aligned on interleaves
Interleave, duration             : 96 ms (2.40 video frames)
Interleave, preload duration     : 96 ms

 
http://img545.imageshack.us/img545/6005/vlcsnap2011021318h51m41.png 
http://img402.imageshack.us/img402/4456/vlcsnap2011021318h52m09.png 
http://img402.imageshack.us/img402/4456/vlcsnap2011021318h52m09.png 
http://img87.imageshack.us/img87/7237/vlcsnap2011021318h53m32.png